<!DOCTYPE svg PUBLIC "-//W3C//DTD SVG 20010904//EN" "http://www.w3.org/TR/2001/REC-SVG-20010904/DTD/svg10.dtd">
<svg version="1.0" xmlns="http://www.w3.org/2000/svg" width="659px" height="591px" viewBox="0 0 6590 5910" preserveAspectRatio="xMidYMid meet">
<g id="layer1" fill="#000000" stroke="none">
 <path d="M2586 5603 c-9 -9 4 -334 14 -348 4 -5 10 -84 13 -174 4 -91 10 -168 15 -173 9 -9 120 42 161 73 13 10 47 30 76 44 30 14 56 29 59 34 6 10 -17 61 -48 106 -32 45 -45 68 -56 93 -6 13 -20 38 -33 55 -32 45 -46 69 -57 95 -6 13 -21 38 -34 55 -12 18 -26 39 -30 47 -17 39 -52 94 -62 97 -5 2 -14 0 -18 -4z"/>
 <path d="M1727 5243 c-10 -9 -8 -61 2 -67 5 -3 12 -58 16 -121 4 -63 11 -117 15 -120 4 -3 11 -51 15 -107 4 -57 11 -107 15 -113 4 -5 11 -61 15 -123 4 -62 11 -115 16 -118 5 -3 9 -16 9 -29 0 -36 15 -38 62 -11 24 14 54 31 68 37 14 6 32 16 40 24 13 12 89 54 163 92 15 8 27 19 27 24 0 5 6 9 14 9 8 0 27 10 41 23 l26 22 -28 34 c-15 19 -61 69 -100 111 -40 42 -73 80 -73 85 0 4 -27 34 -60 67 -33 32 -60 61 -60 65 0 3 -30 39 -67 78 -38 39 -81 88 -97 108 -28 36 -45 44 -59 30z"/>
 <path d="M4321 5137 c-6 -14 -15 -28 -20 -32 -9 -5 -55 -69 -96 -134 -5 -9 -16 -20 -22 -24 -7 -4 -13 -14 -13 -21 0 -8 -7 -20 -16 -27 -15 -12 -64 -82 -106 -150 l-17 -28 44 -35 c24 -20 48 -36 54 -36 6 0 11 -4 11 -8 0 -8 78 -67 117 -88 25 -14 33 -9 33 22 0 13 4 25 9 28 5 3 12 58 16 121 4 63 11 117 15 120 4 3 11 55 15 117 4 62 12 118 17 125 5 6 8 24 6 40 -4 37 -35 43 -47 10z"/>
 <path d="M3205 5015 c-22 -14 -50 -29 -62 -35 -13 -5 -23 -14 -23 -20 0 -5 -6 -10 -13 -10 -7 0 -43 -19 -78 -42 -36 -24 -74 -49 -85 -56 -10 -6 -29 -16 -41 -22 -13 -5 -23 -14 -23 -19 0 -5 -10 -11 -23 -15 -13 -3 -36 -17 -51 -31 -15 -14 -29 -25 -31 -25 -8 0 -100 -72 -103 -81 -2 -5 -8 -9 -13 -9 -11 0 -103 -69 -107 -81 -2 -5 -8 -9 -13 -9 -11 0 -103 -69 -107 -81 -2 -5 -8 -9 -13 -9 -11 0 -103 -69 -107 -81 -2 -5 -8 -9 -13 -9 -14 0 -102 -69 -129 -102 -14 -17 -42 -50 -62 -73 -21 -23 -38 -45 -38 -48 0 -4 -15 -22 -32 -41 -50 -52 -118 -133 -118 -140 0 -3 -15 -21 -32 -40 -50 -52 -118 -133 -118 -140 0 -3 -15 -21 -32 -40 -52 -55 -118 -134 -118 -141 0 -3 -13 -18 -28 -33 -15 -15 -41 -45 -57 -67 -37 -50 -365 -702 -365 -725 0 -10 -7 -31 -15 -46 -8 -16 -15 -41 -15 -56 0 -15 -4 -29 -9 -33 -6 -3 -13 -26 -17 -52 -4 -25 -13 -58 -20 -72 -8 -14 -14 -38 -14 -53 0 -15 -4 -30 -10 -33 -5 -3 -12 -28 -16 -56 -4 -27 -11 -52 -15 -55 -12 -7 -12 -91 0 -98 4 -3 11 -65 15 -138 4 -73 11 -137 15 -143 5 -5 11 -55 14 -110 5 -85 11 -109 38 -165 18 -36 38 -72 45 -80 14 -17 66 -112 112 -205 17 -34 38 -67 47 -75 10 -8 71 -42 136 -75 65 -33 177 -90 250 -128 131 -67 131 -67 215 -67 45 0 86 -5 89 -10 8 -12 192 -13 199 -1 3 4 28 11 55 15 28 4 53 11 56 16 3 6 18 10 33 10 15 0 39 6 54 14 14 8 45 17 68 21 23 4 52 12 65 19 12 7 109 98 213 203 160 160 196 201 221 254 17 35 40 78 53 95 13 18 32 52 43 78 19 44 45 62 45 31 0 -7 6 -18 13 -22 14 -9 32 -37 47 -71 6 -13 20 -38 33 -55 31 -45 46 -69 57 -94 5 -13 13 -23 18 -23 4 0 13 -12 19 -28 16 -37 61 -114 70 -121 11 -8 31 -40 44 -71 15 -35 39 -61 74 -77 35 -15 57 -29 102 -60 17 -13 42 -28 55 -33 13 -6 41 -21 63 -35 36 -22 52 -24 147 -25 60 0 110 -4 113 -10 8 -13 242 -13 250 0 3 6 16 10 28 10 13 0 31 6 42 14 11 7 36 17 55 21 19 4 41 11 50 16 8 5 35 18 60 29 69 32 87 44 114 73 14 15 29 27 34 27 5 0 17 10 28 21 10 12 36 34 56 49 37 27 108 112 108 129 0 5 4 11 9 13 12 4 81 96 81 108 0 6 4 10 8 10 19 0 142 211 142 243 0 7 17 47 39 88 l39 76 7 344 7 344 -219 433 c-262 521 -275 546 -289 563 -13 15 -59 99 -105 188 -15 30 -31 57 -36 60 -4 3 -21 32 -36 64 -16 32 -50 82 -77 110 -201 216 -295 317 -390 415 -61 63 -110 117 -110 121 0 15 -128 129 -165 147 -22 10 -42 22 -43 27 -2 4 -27 19 -55 33 -58 28 -79 40 -122 70 -16 11 -43 27 -60 36 -16 8 -60 31 -97 51 -37 21 -71 37 -75 37 -4 -1 -26 -12 -48 -25z m-1677 -2333 c27 -17 27 -14 2 -64 -11 -23 -20 -46 -20 -50 0 -11 -35 -93 -57 -132 -13 -24 -14 -59 -8 -262 4 -129 11 -237 16 -240 5 -3 9 -17 9 -32 0 -15 6 -39 14 -53 7 -14 16 -47 20 -72 4 -26 11 -49 15 -52 5 -2 12 -29 16 -60 3 -30 10 -57 15 -60 5 -3 12 -26 16 -50 3 -25 10 -48 15 -51 5 -3 9 -13 9 -22 0 -11 -3 -13 -8 -5 -4 6 -19 14 -34 18 -15 4 -32 13 -39 21 -6 8 -17 14 -23 14 -12 0 -46 64 -156 294 l-52 108 7 179 c4 99 11 182 16 185 5 3 9 13 9 22 1 9 9 35 20 57 11 22 19 48 20 58 0 9 4 25 9 35 22 40 40 84 46 114 4 18 14 42 21 53 8 11 14 29 14 41 0 37 37 39 88 6z"/>
 <path d="M4760 4500 c-151 -76 -276 -143 -277 -147 -3 -8 44 -55 252 -251 43 -41 81 -70 86 -65 12 12 59 103 59 114 0 12 34 91 55 131 8 14 15 32 15 39 0 11 44 112 71 161 5 10 9 23 9 29 0 7 10 31 21 55 22 43 20 75 -3 73 -7 0 -137 -63 -288 -139z"/>
 <path d="M935 4430 c-3 -5 5 -29 19 -52 14 -24 37 -67 51 -95 14 -29 29 -53 33 -53 4 0 13 -12 20 -27 15 -37 62 -121 87 -158 31 -46 42 -66 70 -122 27 -55 45 -65 74 -39 86 78 119 106 126 106 4 0 22 13 39 30 17 16 49 44 70 63 26 22 37 39 33 49 -5 16 -579 308 -603 308 -7 0 -16 -4 -19 -10z"/>
 <path d="M4893 3814 c-5 -14 175 -390 210 -438 13 -18 16 -17 63 19 27 21 66 55 86 76 21 22 41 39 44 39 7 0 102 84 185 163 27 26 53 47 58 47 15 0 73 69 67 79 -5 7 -64 11 -171 11 -98 0 -166 4 -170 10 -4 6 -77 10 -186 10 -154 0 -180 -2 -186 -16z"/>
 <path d="M453 3575 c-4 -11 25 -45 92 -108 53 -51 143 -136 199 -189 56 -54 107 -98 112 -98 11 0 74 62 74 73 0 4 27 33 60 65 33 33 60 63 60 69 0 5 14 22 30 38 17 16 30 32 30 36 0 17 -66 38 -140 45 -44 3 -83 10 -85 14 -3 5 -43 11 -90 15 -47 4 -87 11 -90 15 -3 5 -43 11 -90 15 -47 4 -88 11 -91 16 -9 15 -64 10 -71 -6z"/>
 <path d="M5225 3080 c-7 -12 3 -90 15 -105 4 -5 10 -37 14 -69 4 -33 10 -64 15 -70 5 -6 11 -35 15 -64 4 -30 11 -61 16 -70 5 -10 11 -26 15 -36 5 -18 7 -18 33 6 39 35 72 54 110 63 30 6 74 24 114 46 10 5 25 9 34 9 9 0 28 6 42 13 15 8 42 21 60 30 19 9 40 17 48 17 23 0 124 48 124 60 0 14 -34 30 -64 30 -14 0 -27 4 -30 9 -4 5 -30 12 -59 16 -28 4 -56 11 -62 15 -5 4 -29 11 -52 15 -24 4 -45 11 -48 15 -3 5 -30 12 -60 15 -31 4 -57 11 -60 15 -3 5 -29 11 -58 15 -28 4 -56 11 -62 15 -19 14 -93 22 -100 10z"/>
 <path d="M796 2862 c-3 -5 -22 -13 -42 -17 -20 -3 -44 -10 -53 -15 -42 -23 -86 -40 -100 -40 -9 0 -29 -7 -45 -15 -15 -8 -36 -15 -45 -15 -9 0 -29 -7 -45 -15 -15 -8 -36 -15 -45 -15 -9 0 -25 -6 -36 -14 -11 -7 -36 -17 -55 -21 -19 -4 -41 -11 -50 -15 -8 -4 -27 -13 -42 -19 -16 -6 -28 -15 -28 -20 0 -6 39 -29 88 -52 48 -23 122 -59 166 -80 43 -22 83 -39 90 -39 6 0 42 -16 79 -35 38 -19 75 -35 82 -35 18 0 35 31 35 64 0 14 4 27 9 30 5 4 12 30 16 59 4 28 11 57 15 62 4 6 11 35 15 65 4 30 11 60 16 66 5 6 10 36 12 65 2 43 -1 54 -15 57 -9 2 -19 -1 -22 -6z"/>
 <path d="M5347 2413 c-4 -3 -7 -23 -7 -44 0 -21 -4 -40 -9 -43 -5 -3 -12 -81 -16 -173 -4 -93 -12 -173 -17 -180 -5 -6 -8 -31 -6 -55 l3 -43 70 -3 c38 -2 79 1 90 7 11 5 112 12 224 15 117 3 209 10 215 16 7 7 -4 25 -34 55 -24 25 -47 45 -51 45 -4 0 -45 36 -91 79 -208 199 -265 251 -272 251 -4 0 -19 13 -34 28 -38 39 -58 53 -65 45z"/>
 <path d="M697 1987 c-20 -25 -37 -50 -37 -56 0 -6 -4 -11 -9 -11 -10 0 -34 -38 -47 -72 -3 -10 -10 -18 -14 -18 -3 0 -24 -26 -46 -57 -21 -32 -43 -61 -47 -64 -10 -7 -34 -47 -43 -71 -3 -9 -12 -19 -20 -22 -8 -3 -14 -11 -14 -17 0 -6 -13 -27 -30 -46 -31 -35 -37 -57 -19 -69 6 -3 61 18 122 48 62 30 165 81 230 112 l118 58 -6 41 c-4 23 -11 46 -16 52 -5 5 -9 18 -9 30 0 11 -6 32 -14 46 -7 14 -16 46 -20 70 -4 24 -15 54 -25 67 l-17 24 -37 -45z"/>
 <path d="M5217 1552 c-15 -15 -27 -31 -27 -35 0 -3 -21 -29 -47 -56 -77 -80 -163 -178 -163 -184 0 -3 -12 -18 -26 -34 l-26 -28 27 -22 c14 -13 33 -23 41 -23 8 0 14 -5 14 -10 0 -6 10 -15 23 -20 25 -11 49 -26 94 -57 17 -13 42 -27 55 -33 13 -5 32 -16 42 -22 11 -7 49 -32 85 -55 35 -24 71 -43 78 -43 7 0 13 -5 13 -10 0 -6 10 -14 23 -19 12 -5 45 -25 74 -44 77 -52 115 -69 127 -57 6 6 -22 72 -82 193 -51 101 -92 188 -92 194 0 16 -191 393 -199 393 -4 0 -19 -13 -34 -28z"/>
 <path d="M3125 1340 c-8 -12 4 -90 15 -105 4 -5 11 -32 15 -60 4 -27 10 -54 15 -60 4 -5 11 -32 15 -60 4 -27 10 -54 15 -60 4 -5 11 -32 15 -60 4 -27 10 -54 13 -60 4 -5 12 -32 17 -60 7 -33 15 -50 25 -50 9 0 35 39 63 95 27 52 54 102 61 110 11 13 106 198 106 206 0 6 -344 174 -356 174 -7 0 -16 -5 -19 -10z"/>
 <path d="M951 1256 c-12 -18 -21 -40 -21 -49 0 -9 -4 -19 -10 -22 -5 -3 -10 -13 -10 -21 0 -14 -29 -88 -49 -124 -5 -9 -12 -31 -16 -50 -4 -19 -14 -44 -21 -55 -8 -11 -14 -27 -14 -36 0 -10 -8 -32 -17 -51 -29 -59 -33 -68 -33 -79 0 -6 -7 -27 -16 -46 -13 -25 -14 -37 -5 -46 8 -8 18 -4 39 16 15 15 32 27 36 27 5 0 23 13 40 29 69 66 134 121 141 121 4 0 22 13 39 29 72 68 134 121 142 121 15 0 54 46 54 63 0 8 -15 24 -32 35 -18 12 -46 34 -62 51 -17 17 -35 31 -40 31 -6 1 -22 14 -36 30 -13 17 -29 30 -36 30 -6 0 -17 7 -24 15 -18 22 -26 19 -49 -19z"/>
 <path d="M2848 1203 c-16 -8 -28 -18 -28 -24 0 -5 -6 -9 -13 -9 -7 0 -43 -19 -78 -42 -36 -24 -74 -49 -85 -56 -10 -6 -29 -16 -41 -22 -13 -5 -23 -17 -22 -27 1 -26 212 -438 224 -438 6 0 11 16 13 35 2 19 7 39 12 45 4 5 11 60 15 120 4 61 11 115 15 120 4 6 11 60 15 120 4 61 12 115 17 122 12 15 7 66 -7 69 -5 1 -22 -5 -37 -13z"/>
 <path d="M4635 1091 c-3 -6 -18 -11 -33 -11 -15 0 -39 -7 -54 -14 -16 -8 -48 -18 -73 -22 -25 -3 -48 -10 -50 -15 -3 -4 -25 -11 -48 -14 -23 -4 -53 -15 -66 -24 l-23 -18 38 -69 c20 -38 44 -82 52 -99 9 -16 25 -43 36 -60 30 -43 42 -64 70 -122 14 -28 29 -53 33 -55 5 -1 18 -23 31 -48 74 -143 82 -155 99 -155 17 0 19 19 25 250 11 356 8 479 -14 483 -9 2 -19 -2 -23 -7z"/>
 <path d="M3614 1025 c-4 -8 -2 -21 4 -28 5 -6 13 -33 16 -59 4 -26 11 -50 17 -53 5 -4 9 -18 9 -33 0 -15 7 -39 14 -54 8 -16 18 -48 22 -73 3 -25 10 -48 15 -50 4 -3 11 -26 15 -50 3 -25 10 -47 14 -50 5 -3 11 -26 15 -53 3 -26 14 -58 24 -70 l17 -24 16 24 c8 13 19 39 23 58 4 19 11 40 15 45 4 6 11 26 15 45 4 19 14 44 21 55 8 11 14 27 14 36 0 9 7 30 15 45 8 16 15 36 15 45 0 9 7 30 16 47 28 57 26 58 -144 141 -23 12 -49 21 -56 21 -7 0 -34 11 -60 25 -55 29 -65 30 -72 10z"/>
 <path d="M2161 880 c-73 -38 -138 -73 -143 -78 -11 -11 26 -82 42 -82 4 0 11 -8 14 -17 9 -26 33 -65 43 -72 5 -3 30 -39 57 -78 26 -40 52 -75 57 -79 6 -3 14 -17 20 -31 6 -16 15 -23 27 -21 20 4 29 75 31 254 0 62 6 115 11 120 6 6 10 41 8 80 -2 52 -7 69 -18 71 -8 1 -75 -29 -149 -67z"/>
 </g>

</svg>